<svg fill="none" height="50" viewBox="0 0 200 50" width="200" xmlns="http://www.w3.org/2000/svg"><g fill="#0062ff"><path d="m66.1464 33.9863c-3.4993 0-6.7274-1.1393-8.4092-3.7977l2.5499-2.9839c1.2207 2.2786 3.8519 3.2823 6.022 3.2823 1.5734 0 2.7127-.4883 2.7127-1.7361 0-1.4106-1.1936-1.8718-3.6078-2.36l-1.7632-.3798c-2.8212-.5697-5.4796-1.8175-5.4796-5.2625 0-3.5536 3.0653-5.4253 6.7545-5.4253 3.4179 0 6.1577 1.302 7.6768 3.4722l-2.6313 2.9567c-1.1935-1.8988-3.3094-2.9296-5.3981-2.9296-1.3835 0-2.3872.5968-2.3872 1.6547 0 1.3292 1.1665 1.8175 3.0653 2.2515l2.0616.4883c3.3908.7866 5.6966 2.1701 5.6966 5.4253 0 3.4721-2.9297 5.3439-6.863 5.3439z"/><path d="m79.2459 33.9863c-2.5227 0-4.0961-1.5462-4.0961-4.286v-9.2773h3.8791v7.921c0 1.6276.434 2.6312 2.2244 2.6312 1.8446 0 2.4142-1.0308 2.4142-3.2009v-7.3513h3.8791v13.292h-3.8791v-3.7163c-.4611 2.1158-1.7361 3.9876-4.4216 3.9876z"/><path d="m94.157 33.715h-3.8791v-13.292h3.8791v4.1775c.434-2.2244 1.7361-4.4487 4.286-4.4487 1.953 0 3.038 1.2478 3.038 3.3365 0 1.4377-.434 2.577-.759 3.0924h-3.7439c.4883-.4882.9495-1.4377.9495-2.1972s-.3527-1.3292-1.1936-1.3292c-1.3292 0-2.577 1.4377-2.577 3.635z"/><path d="m108.323 29.863c-1.166 0-2.197-.217-3.065-.6239-.19.2984-.353.7053-.353 1.0851 0 .6239.326.9765 1.383.9765h4.666c2.957 0 4.286 1.2207 4.286 3.1738 0 2.4957-2.414 4.5573-7.704 4.5573-4.096 0-6.239-1.2207-6.239-2.794 0-1.275 1.329-1.926 2.93-2.1159-1.112-.2441-1.98-.8409-1.98-2.0074 0-1.3563 1.193-2.4685 2.468-3.1738-1.383-.8409-2.197-2.2243-2.197-3.9333 0-2.8754 2.333-4.8556 5.805-4.8556.787 0 1.519.1085 2.197.2984l.597-3.201 3.445 1.1665-2.577 2.6855c1.356.868 2.17 2.2244 2.17 3.9062 0 2.8754-2.36 4.8556-5.832 4.8556zm0-2.6041c1.248 0 2.197-.7595 2.197-2.2515 0-1.4919-.949-2.2515-2.197-2.2515-1.221 0-2.197.7596-2.197 2.2515 0 1.492.976 2.2515 2.197 2.2515zm-.461 9.0602c2.685 0 4.042-.5154 4.042-1.3834 0-.5968-.489-.7867-1.519-.7867h-5.616c-.162.1899-.352.4612-.352.7867 0 .868.949 1.3834 3.445 1.3834z"/><path d="m122.716 33.9863c-4.232 0-6.809-2.8212-6.809-6.9173s2.577-6.9172 6.483-6.9172c4.232 0 6.348 2.8211 6.348 6.2933 0 .5697-.055 1.3292-.136 1.6276h-9.06c.244 1.8717 1.492 2.7669 3.228 2.7669 1.872 0 2.875-.8138 3.364-1.9531l2.36 2.36c-1.004 1.4377-2.794 2.7398-5.778 2.7398zm-.299-10.8506c-1.654 0-2.685.9223-2.875 2.7126h5.696c-.135-1.7632-1.085-2.7126-2.821-2.7126z"/><path d="m140.2 33.715h-3.879v-18.1747h8.437c3.933 0 6.808 1.8174 6.808 5.6694 0 3.2281-2.197 4.8828-5.154 5.2354 1.438.3798 2.198 1.275 2.984 2.5499l2.876 4.72h-4.476l-3.066-5.154c-.705-1.2207-1.519-1.6547-3.119-1.6547h-1.411zm4.422-14.7297h-4.422v4.8014h4.422c1.682 0 2.875-.6781 2.875-2.3871 0-1.7632-1.193-2.4143-2.875-2.4143z"/><path d="m157.867 18.8497h-3.879v-3.3094h3.879zm0 14.8653h-3.879v-13.292h3.879z"/><path d="m168.966 33.715h-4.91l-4.666-13.292h4.286l1.845 6.3748 1.03 4.6657 1.004-4.6657 1.845-6.3748h4.231z"/><path d="m180.545 33.9863c-4.232 0-6.809-2.8212-6.809-6.9173s2.577-6.9172 6.483-6.9172c4.232 0 6.348 2.8211 6.348 6.2933 0 .5697-.054 1.3292-.136 1.6276h-9.06c.244 1.8717 1.492 2.7669 3.228 2.7669 1.872 0 2.875-.8138 3.364-1.9531l2.36 2.36c-1.004 1.4377-2.794 2.7398-5.778 2.7398zm-.299-10.8506c-1.654 0-2.685.9223-2.875 2.7126h5.697c-.136-1.7632-1.085-2.7126-2.822-2.7126z"/><path d="m192.676 33.715h-3.879v-13.292h3.879v4.1775c.434-2.2244 1.736-4.4487 4.286-4.4487 1.953 0 3.038 1.2478 3.038 3.3365 0 1.4377-.434 2.577-.76 3.0924h-3.743c.488-.4882.949-1.4377.949-2.1972s-.352-1.3292-1.193-1.3292c-1.329 0-2.577 1.4377-2.577 3.635z"/><path d="m31.9204 30.797c.1342.0116.2593.0385.3751.0806.1158.0422.2223.1119.3195.2091s.173.2158.2273.3559c.0542.1402.081.2835.0803.4299-.0416 1.0378-.2261 1.9573-.5535 2.7584s-.804 1.5145-1.4298 2.14c-.4539.4538-.9993.8654-1.636 1.2346-.6368.3693-1.518.7885-2.6436 1.2578-.9789.4197-1.7101.762-2.1937 1.0267-.4836.2648-.8849.5566-1.204.8755-.4171.4171-.7155.8976-.8952 1.4417-.1797.544-.2591 1.1944-.2383 1.9512-.0007.1465-.0289.29-.0845.4307-.0556.1406-.1325.26-.2306.3581-.0982.0982-.2054.1689-.3216.2121-.1162.0433-.2415.0714-.3759.0842-.1465.0007-.2838-.0261-.4117-.0804-.128-.0543-.2406-.1301-.3378-.2273-.0972-.0971-.17-.2067-.2182-.3285-.0483-.1218-.0782-.2499-.0898-.3841-.0316-1.0374.098-1.9627.3888-2.7759.2909-.8131.743-1.5264 1.3565-2.1396.4294-.4293.9442-.8163 1.5441-1.161.6-.3446 1.4384-.7393 2.5151-1.1839 1.04-.4322 1.811-.7899 2.313-1.073.502-.2832.9309-.6026 1.2867-.9583.4294-.4293.7554-.9314.978-1.5062.2225-.5748.354-1.2468.3943-2.016.0128-.1343.044-.2627.0934-.385s.1232-.2325.2214-.3306c.0981-.0981.2114-.175.3399-.2305.1285-.0556.2721-.0776.4308-.0662zm-3.5547-3.5535c.1343.0116.2593.0384.3751.0806s.2223.1118.3195.209.173.2159.2273.356.081.2834.0803.4299c-.0416 1.0378-.223 1.9542-.5443 2.7492s-.7948 1.5052-1.4206 2.1308c-.4539.4538-1.0054.8715-1.6544 1.253s-1.5302.8008-2.6436 1.2578c-.9789.4197-1.7071.7589-2.1845 1.0175-.4775.2586-.8757.5474-1.1947.8663-.4172.417-.7218.9037-.9137 1.46-.1919.5564-.2714 1.2068-.2383 1.9512-.0007.1465-.0288.284-.0844.4124-.0555.1285-.1324.2418-.2306.3399-.0981.0981-.2023.1718-.3124.2212s-.2324.0805-.3668.0933c-.1465.0007-.2899-.0261-.43-.0803-.1402-.0543-.2589-.13-.3561-.2272s-.1669-.2037-.2091-.3194c-.0422-.1158-.0691-.2408-.0806-.375-.0317-1.0375.0979-1.9628.3887-2.7759.2909-.8132.743-1.5264 1.3565-2.1397.4295-.4293.9442-.8162 1.5442-1.1609.5999-.3447 1.4444-.7454 2.5334-1.2023 1.04-.4322 1.811-.7899 2.313-1.0731.502-.2831.9248-.5964 1.2683-.9399.4294-.4293.7585-.9405.9873-1.5336.2287-.5932.3571-1.2682.3851-2.0252.0129-.1343.0471-.2596.1026-.3758.0555-.1163.1262-.2173.2121-.3032.0981-.0981.2145-.178.3491-.2397.1347-.0616.2752-.0806.4216-.0569zm7.1094 7.1071c.1342.0115.2593.0384.3751.0806.1158.0421.2223.1118.3195.209s.173.2158.2273.356c.0542.1401.081.2834.0803.4299-.0416 1.0378-.223 1.9542-.5443 2.7491-.3213.795-.7948 1.5053-1.4206 2.1309-.4539.4538-1.0054.8715-1.6544 1.253-.6491.3815-1.5302.8007-2.6436 1.2577-.9789.4197-1.7071.7589-2.1845 1.0176-.4775.2586-.8757.5474-1.1948.8663-.4171.417-.7217.9037-.9136 1.46s-.2714 1.2067-.2383 1.9512c.0114.1586-.0106.3022-.0662.4306-.0555.1285-.1324.2417-.2306.3399-.0981.0981-.2084.1719-.3307.2213-.1224.0494-.2507.0805-.3851.0934-.1465.0007-.2838-.0261-.4117-.0805-.128-.0543-.2406-.13-.3378-.2272s-.17-.2067-.2182-.3286c-.0483-.1218-.0782-.2498-.0898-.3841-.0316-1.0374.0949-1.9596.3796-2.7666.2847-.8071.7399-1.5234 1.3657-2.1489.4294-.4293.9411-.8193 1.535-1.1701.5939-.3507 1.4292-.7484 2.5059-1.193 1.04-.4322 1.811-.7899 2.313-1.073.502-.2832.9309-.6026 1.2868-.9583.4294-.4293.7615-.9375.9963-1.5246.2349-.587.3663-1.259.3943-2.016.0129-.1343.0471-.2596.1026-.3759.0555-.1162.1262-.2172.2121-.3031.0981-.0981.2145-.178.3491-.2397s.2751-.0807.4216-.0569z"/><path d="m30.6441 18.0316c.0116-.1343.0385-.2593.0807-.375.0422-.1158.1119-.2223.2091-.3195.0972-.0971.2159-.1729.3561-.2271.1401-.0543.2835-.0811.43-.0804 1.0381.0416 1.9579.2261 2.7593.5534s1.5149.8037 2.1407 1.4293c.454.4538.8656.999 1.235 1.6355s.7888 1.5175 1.2582 2.6427c.4198.9786.7622 1.7096 1.027 2.193.2649.4835.5568.8847.8758 1.2036.4172.417.8979.7153 1.4421.8949.5443.1796 1.1949.259 1.9519.2382.1465.0007.2901.0289.4308.0845s.2601.1325.3583.2306.1689.2053.2122.3214c.0433.1162.0713.2415.0842.3758.0007.1465-.0261.2837-.0805.4116-.0543.1279-.1301.2405-.2273.3377s-.2068.1699-.3286.2181c-.1219.0483-.25.0782-.3843.0897-1.0377.0317-1.9633-.0979-2.7768-.3886-.8134-.2908-1.5268-.7428-2.1403-1.3561-.4294-.4293-.8166-.9438-1.1613-1.5436-.3448-.5998-.7396-1.4379-1.1843-2.5142-.4324-1.0397-.7902-1.8104-1.0734-2.3122-.2833-.5019-.6028-.9307-.9586-1.2864-.4295-.4293-.9317-.7551-1.5067-.9776-.5749-.2225-1.2472-.3539-2.0167-.3942-.1343-.0128-.2627-.044-.385-.0934-.1224-.0494-.2326-.1232-.3308-.2213s-.175-.2114-.2306-.3398c-.0555-.1285-.0776-.272-.0662-.4306zm-3.5546 3.5535c.0115-.1342.0384-.2592.0806-.375s.1119-.2222.2091-.3194.2159-.1729.3561-.2272c.1401-.0543.2835-.081.43-.0803 1.0382.0415 1.9548.2229 2.7501.5441.7952.3212 1.5057.7946 2.1315 1.4201.454.4538.8718 1.0052 1.2534 1.6539.3817.6488.8011 1.5298 1.2582 2.6428.4198.9785.7591 1.7065 1.0178 2.1838.2588.4773.5476.8754.8666 1.1943.4172.417.904.7215 1.4606.9134.5565.1918 1.2071.2712 1.9518.2382.1465.0007.284.0288.4125.0843.1285.0556.2418.1324.34.2306.0981.0981.1719.2022.2213.3123.0493.1101.0804.2323.0933.3666.0007.1465-.0261.2898-.0804.43-.0542.1401-.13.2587-.2272.3559s-.2038.1669-.3196.2091c-.1158.0421-.2408.069-.3751.0806-1.0377.0316-1.9633-.0979-2.7767-.3887-.8135-.2907-1.5269-.7428-2.1404-1.356-.4294-.4293-.8165-.9439-1.1613-1.5437s-.7457-1.444-1.2027-2.5326c-.4324-1.0396-.7902-1.8104-1.0734-2.3122-.2833-.5019-.5967-.9245-.9402-1.2679-.4295-.4293-.9408-.7583-1.5342-.987-.5933-.2286-1.2686-.357-2.0258-.385-.1344-.0129-.2597-.047-.376-.1025-.1162-.0555-.2173-.1262-.3032-.2121-.0981-.0981-.1781-.2144-.2398-.349s-.0807-.275-.0569-.4214zm7.1093-7.1071c.0116-.1342.0385-.2592.0807-.375.0422-.1157.1119-.2222.2091-.3194s.2159-.1729.3561-.2272c.1401-.0542.2835-.081.43-.0803 1.0381.0416 1.9548.223 2.7501.5442.7952.3211 1.5057.7945 2.1315 1.4201.4539.4538.8718 1.0051 1.2534 1.6539s.801 1.5297 1.2582 2.6427c.4198.9786.7591 1.7065 1.0178 2.1838s.5476.8754.8666 1.1943c.4172.4171.904.7215 1.4605.9134s1.2072.2713 1.9519.2382c.1587-.0114.3022.0106.4307.0662.1285.0555.2418.1323.34.2305.0981.0981.1719.2083.2214.3306.0494.1223.0805.2506.0934.385.0007.1465-.0261.2837-.0805.4116-.0543.1279-.1301.2404-.2273.3376s-.2068.1699-.3287.2182c-.1218.0482-.2499.0781-.3842.0897-1.0378.0317-1.9603-.0948-2.7676-.3794-.8073-.2847-1.5238-.7398-2.1495-1.3653-.4295-.4293-.8196-.9408-1.1705-1.5345-.3508-.5937-.7486-1.4288-1.1934-2.5051-.4323-1.0397-.7901-1.8104-1.0734-2.3123-.2832-.5018-.6028-.9306-.9586-1.2863-.4294-.4293-.9378-.7613-1.525-.996-.5873-.2348-1.2595-.3662-2.0167-.3942-.1344-.0128-.2597-.047-.376-.1025-.1162-.0555-.2173-.1262-.3032-.212-.0982-.0981-.1781-.2145-.2398-.3491-.0617-.1345-.0807-.275-.057-.4214z"/><path d="m17.8689 19.203c-.1342-.0116-.2593-.0385-.3751-.0806-.1158-.0422-.2223-.1119-.3195-.2091s-.173-.2158-.2273-.3559c-.0542-.1402-.081-.2835-.0803-.4299.0416-1.0378.2261-1.9573.5535-2.7584s.804-1.5145 1.4298-2.14c.4539-.4538.9993-.8654 1.636-1.2346.6368-.3693 1.518-.7885 2.6436-1.2578.9789-.4197 1.7101-.76196 2.1937-1.02672s.885-.5566 1.204-.8755c.4171-.41704.7155-.89759.8952-1.44166s.2591-1.19447.2383-1.9512c.0007-.14648.0289-.29005.0845-.4307.0556-.14064.1325-.26003.2307-.35815.0981-.09813.2053-.16883.3215-.21211s.2415-.07135.3759-.0842c.1465-.0007.2838.02611.4117.08043.128.05432.2406.13007.3378.22727.0972.09719.17.2067.2182.32854.0483.12184.0782.24987.0898.38409.0316 1.03744-.098 1.96274-.3888 2.77589-.2909.81315-.743 1.52637-1.3565 2.13962-.4294.4293-.9442.8163-1.5441 1.161-.6.3446-1.4384.7393-2.5151 1.1839-1.0399.4322-1.8109.7899-2.313 1.073-.502.2832-.9309.6026-1.2867.9583-.4294.4293-.7554.9314-.978 1.5062-.2225.5748-.3539 1.2468-.3943 2.016-.0128.1343-.044.2627-.0934.385s-.1232.2325-.2214.3306c-.0981.0981-.2114.175-.3399.2305-.1285.0556-.2721.0776-.4308.0662zm3.5547 3.5535c-.1342-.0116-.2593-.0384-.3751-.0806s-.2223-.1118-.3195-.209-.173-.2159-.2273-.356c-.0542-.1401-.081-.2834-.0803-.4299.0416-1.0378.223-1.9542.5443-2.7492s.7948-1.5052 1.4206-2.1308c.4539-.4538 1.0054-.8715 1.6544-1.253s1.5302-.8008 2.6436-1.2578c.9789-.4197 1.7071-.7589 2.1845-1.0175.4775-.2586.8757-.5474 1.1947-.8663.4172-.417.7218-.9037.9137-1.46.1919-.5564.2714-1.20678.2383-1.95125.0007-.14648.0288-.28395.0844-.41238.0556-.12844.1324-.24172.2306-.33985.0981-.09812.2023-.17186.3124-.22122.1101-.04935.2324-.08046.3668-.09331.1465-.0007.2899.02608.43.08034.1402.05426.2589.12999.3561.22718s.1669.20367.2091.31943c.0422.11577.0691.24076.0807.37498.0316 1.03744-.098 1.96278-.3888 2.77588-.2909.8132-.743 1.5264-1.3565 2.1397-.4295.4293-.9442.8162-1.5441 1.1609-.6.3447-1.4445.7454-2.5335 1.2023-1.04.4322-1.811.7899-2.313 1.0731-.502.2831-.9247.5964-1.2683.9399-.4294.4293-.7585.9405-.9873 1.5336-.2287.5932-.3571 1.2682-.3851 2.0252-.0129.1343-.0471.2596-.1026.3758-.0555.1163-.1262.2173-.2121.3032-.0981.0981-.2145.178-.3491.2397-.1346.0616-.2752.0806-.4216.0569zm-7.1094-7.1071c-.1342-.0115-.2593-.0384-.3751-.0806-.1158-.0421-.2223-.1118-.3195-.209s-.173-.2158-.2272-.356c-.0543-.1401-.0811-.2834-.0804-.4299.0416-1.0378.223-1.9542.5443-2.7491.3213-.795.7948-1.5053 1.4206-2.13085.454-.45383 1.0054-.87151 1.6545-1.25303.649-.38152 1.5302-.80077 2.6435-1.25775.9789-.41972 1.7071-.75889 2.1846-1.01752.4774-.25863.8757-.5474 1.1947-.86631.4171-.41703.7217-.90371.9136-1.46005.1919-.55633.2714-1.20673.2383-1.9512-.0114-.15864.0106-.30217.0662-.43061.0555-.12844.1324-.24172.2306-.33985.0981-.09812.2084-.171892.3307-.221305.1224-.049413.2507-.080544.3851-.093394.1465-.000701.2838.026108.4117.080427.128.05432.2406.130072.3378.227262s.17.20671.2182.32855c.0483.12184.0782.24987.0898.38409.0316 1.03744-.0949 1.95967-.3796 2.76669s-.7399 1.5233-1.3657 2.14885c-.4294.4293-.9411.81932-1.535 1.17006s-1.4292.74841-2.5059 1.19301c-1.04.43222-1.811.7899-2.313 1.07303-.502.2832-.9309.6026-1.2867.9583-.4295.4293-.7616.9375-.9964 1.5246-.2348.587-.3663 1.259-.3943 2.016-.0129.1343-.0471.2596-.1026.3759-.0555.1162-.1262.2172-.2121.3031-.0981.0981-.2145.178-.3491.2397s-.2751.0807-.4216.0569z"/><path d="m19.101 32.039c-.0116.1343-.0385.2593-.0807.375-.0421.1158-.1118.2223-.2091.3194-.0972.0972-.2159.173-.3561.2272-.1401.0543-.2835.0811-.43.0804-1.0381-.0416-1.9579-.2261-2.7593-.5534s-1.5149-.8037-2.1407-1.4293c-.4539-.4538-.8656-.999-1.235-1.6355-.3694-.6366-.7888-1.5175-1.2582-2.6427-.4198-.9786-.76217-1.7096-1.02702-2.1931-.26485-.4834-.55678-.8846-.87579-1.2035-.41717-.417-.89787-.7153-1.44212-.8949-.54424-.1796-1.19486-.259-1.95183-.2382-.14654-.0007-.29015-.0289-.43084-.0845-.1407-.0556-.26012-.1325-.35828-.2306-.09815-.0981-.16888-.2053-.21217-.3214-.0433-.1162-.07137-.2415-.08423-.3758-.0007-.1465.02612-.2837.08046-.4116.05433-.1279.13011-.2405.22734-.3377.09722-.0972.20677-.1699.32865-.2181.12188-.0483.24995-.0782.38421-.0897 1.03778-.0317 1.96338.0979 2.7768.3886.81341.2908 1.52686.7428 2.14032 1.3561.4295.4293.8166.9438 1.1613 1.5436.3448.5998.7396 1.4379 1.1843 2.5142.4324 1.0396.7902 1.8104 1.0734 2.3122.2833.5019.6028.9307.9587 1.2864.4294.4293.9316.7551 1.5066.9776s1.2472.3539 2.0167.3942c.1344.0128.2627.044.3851.0934.1223.0494.2326.1232.3307.2213.0982.0981.175.2114.2306.3398.0556.1285.0776.272.0662.4306zm3.5547-3.5535c-.0116.1342-.0385.2592-.0807.375-.0422.1157-.1119.2222-.2091.3194s-.2159.1729-.3561.2272c-.1401.0543-.2835.081-.43.0803-1.0381-.0416-1.9548-.2229-2.7501-.5441-.7952-.3212-1.5057-.7946-2.1315-1.4201-.454-.4539-.8718-1.0052-1.2534-1.654-.3817-.6487-.801-1.5297-1.2582-2.6427-.4198-.9785-.7591-1.7065-1.0178-2.1838s-.5476-.8754-.8666-1.1943c-.4172-.417-.904-.7215-1.4605-.9134-.5566-.1918-1.20717-.2712-1.95188-.2382-.14653-.0007-.28404-.0288-.41252-.0843-.12848-.0556-.2418-.1324-.33995-.2306-.09816-.0981-.17193-.2022-.2213-.3123s-.08048-.2323-.09333-.3666c-.00071-.1465.02608-.2898.08036-.43.05428-.1401.13003-.2587.22725-.3559.09723-.0972.20374-.1669.31954-.2091.1158-.0421.24084-.069.3751-.0806 1.03778-.0316 1.96333.0979 2.77683.3887.8134.2907 1.5268.7427 2.1403 1.356.4295.4293.8166.9439 1.1613 1.5437.3448.5998.7457 1.444 1.2027 2.5326.4324 1.0396.7902 1.8104 1.0734 2.3122.2833.5018.5967.9245.9402 1.2679.4295.4293.9409.7583 1.5342.987.5933.2286 1.2686.357 2.0258.385.1344.0129.2597.047.376.1025.1162.0555.2173.1262.3032.212.0982.0982.1781.2145.2398.3491s.0807.275.057.4214zm-7.1094 7.1071c-.0116.1342-.0385.2592-.0806.375-.0422.1157-.1119.2222-.2092.3194-.0972.0972-.2159.1729-.356.2272-.1402.0542-.2836.081-.4301.0803-1.0381-.0416-1.9548-.223-2.7501-.5442-.7952-.3211-1.5057-.7945-2.13146-1.4201-.45397-.4538-.87178-1.0051-1.25343-1.6539-.38164-.6488-.80103-1.5297-1.25816-2.6427-.41986-.9786-.75914-1.7065-1.01785-2.1838-.25872-.4773-.54758-.8754-.86659-1.1943-.41717-.4171-.90401-.7215-1.46053-.9134-.55651-.1919-1.20712-.2713-1.95183-.2382-.15869.0114-.30227-.0106-.43076-.0662-.12848-.0555-.24179-.1323-.33995-.2305-.098159-.0981-.171952-.2083-.221381-.3306s-.080571-.2506-.093425-.385c-.000701-.1465.026117-.2837.080454-.4116s.130116-.2404.227342-.3376c.09722-.0972.20677-.1699.32865-.2182.12188-.0482.24995-.0781.38421-.0897 1.03778-.0317 1.96031.0948 2.76759.3794.80729.2847 1.52381.7397 2.14956 1.3653.42943.4293.81958.9408 1.17043 1.5345.35086.5937.74866 1.4288 1.1934 2.5051.43236 1.0397.79017 1.8104 1.07343 2.3122.2832.5019.6028.9307.9586 1.2864.4294.4293.9378.7613 1.525.996.5873.2348 1.2595.3662 2.0167.3942.1344.0128.2597.047.376.1025s.2173.1262.3032.212c.0982.0981.1781.2145.2398.3491.0617.1345.0807.275.057.4214z"/></g></svg>